<svg width="48" height="48" viewBox="0 0 48 48" fill="none" xmlns="http://www.w3.org/2000/svg">
<path d="M40 0H8C3.58172 0 0 3.58172 0 8V40C0 44.4183 3.58172 48 8 48H40C44.4183 48 48 44.4183 48 40V8C48 3.58172 44.4183 0 40 0Z" fill="#CCE6FF"/>
<path d="M15 32H13V36H15V32Z" fill="#5EB1FF"/>
<path d="M19 28H17V36H19V28Z" fill="#5EB1FF"/>
<path d="M23 24H21V36H23V24Z" fill="#5EB1FF"/>
<path d="M27 20H25V36H27V20Z" fill="#5EB1FF"/>
<path d="M31 16H29V36H31V16Z" fill="#1F93FF"/>
<path d="M35 12H33V36H35V12Z" fill="#1F93FF"/>
</svg>
