<svg width="48" height="48" viewBox="0 0 48 48" fill="none" xmlns="http://www.w3.org/2000/svg">
<path d="M40 0H8C3.58172 0 0 3.58172 0 8V40C0 44.4183 3.58172 48 8 48H40C44.4183 48 48 44.4183 48 40V8C48 3.58172 44.4183 0 40 0Z" fill="#CCE6FF"/>
<path opacity="0.2" d="M12.1375 17.6663C12.0469 17.8218 11.9995 17.9987 12 18.1788V30.5038C12.001 30.6818 12.0488 30.8564 12.1388 31.01C12.2288 31.1637 12.3577 31.2908 12.5125 31.3788L23.5125 37.5663C23.6608 37.651 23.8292 37.6942 24 37.6913L24.1125 24.3413L12.1375 17.6663V17.6663Z" fill="#1F93FF"/>
<path d="M36.7375 17.1913C36.7342 17.1913 36.731 17.1899 36.7287 17.1876C36.7263 17.1852 36.725 17.1821 36.725 17.1788C36.5443 16.8711 36.2856 16.6167 35.975 16.4413L24.975 10.2538C24.677 10.0874 24.3413 10 24 10C23.6587 10 23.323 10.0874 23.025 10.2538L12.025 16.4413C11.7144 16.6167 11.4557 16.8711 11.275 17.1788C11.275 17.1821 11.2737 17.1852 11.2713 17.1876C11.269 17.1899 11.2658 17.1913 11.2625 17.1913V17.2163C11.0897 17.5075 10.999 17.8401 11 18.1788V30.5038C11.0006 30.8601 11.0959 31.2098 11.276 31.5173C11.456 31.8248 11.7145 32.0789 12.025 32.2538L23.025 38.4413C23.3019 38.5923 23.6098 38.6778 23.925 38.6913H24.1C24.4069 38.6758 24.7063 38.5903 24.975 38.4413L35.975 32.2538C36.2855 32.0789 36.544 31.8248 36.7241 31.5173C36.9042 31.2098 36.9994 30.8601 37 30.5038V18.1788C37.0018 17.8321 36.9112 17.4912 36.7375 17.1913ZM24 11.9913L33.9625 17.5913L24.1125 23.1913L14.05 17.5913L24 11.9913ZM13 19.2913L23.1125 24.9288L23.0125 36.1413L13 30.5038V19.2913ZM25.0125 36.1288L25.1125 24.9288L35 19.3038V30.5038L25.0125 36.1288Z" fill="#1F93FF"/>
</svg>
